<?xml version="1.0" standalone="no"?>
<!DOCTYPE svg PUBLIC "-//W3C//DTD SVG 20010904//EN"
 "http://www.w3.org/TR/2001/REC-SVG-20010904/DTD/svg10.dtd">
<svg version="1.0" xmlns="http://www.w3.org/2000/svg"
 width="18.000000pt" height="18.000000pt" viewBox="0 0 300.000000 204.000000"
 preserveAspectRatio="xMidYMid meet">

<g transform="translate(0.000000,204.000000) scale(0.100000,-0.100000)"
fill="#000000" stroke="none">
<path d="M831 1751 c-10 -10 -24 -43 -30 -72 -7 -30 -17 -74 -22 -99 -6 -25
-14 -63 -19 -85 -5 -22 -50 -227 -100 -455 -50 -228 -95 -433 -100 -455 -28
-119 -60 -277 -60 -294 0 -11 12 -29 26 -40 27 -21 32 -21 839 -21 l812 0 20
22 c20 23 27 56 269 1157 l66 303 -19 27 -20 26 -822 3 c-791 2 -822 1 -840
-17z m416 -131 c18 -7 78 -64 154 -147 68 -75 149 -164 180 -197 157 -171 187
-207 192 -233 11 -56 -13 -84 -174 -201 -674 -490 -621 -454 -658 -448 -52 8
-86 47 -85 96 1 22 7 47 15 56 7 9 74 60 148 115 75 54 218 159 318 232 100
73 185 136 189 140 4 3 -81 102 -188 219 -107 118 -200 223 -206 235 -25 47 0
112 52 133 28 12 29 12 63 0z m680 -1035 c31 -31 35 -40 30 -72 -4 -20 -16
-46 -28 -59 -22 -24 -24 -24 -256 -24 l-234 0 -24 25 c-27 26 -34 80 -15 115
24 44 53 49 279 50 l213 0 35 -35z"/>
</g>
</svg>
